<?xml version="1.0" standalone="no"?>
<!DOCTYPE svg PUBLIC "-//W3C//DTD SVG 20010904//EN"
 "http://www.w3.org/TR/2001/REC-SVG-20010904/DTD/svg10.dtd">
<svg version="1.0" xmlns="http://www.w3.org/2000/svg"
 width="500" height="500" viewBox="0 0 194.000000 194.000000"
 preserveAspectRatio="xMidYMid meet">

<g transform="translate(0.000000,194.000000) scale(0.100000,-0.100000)"
fill="#0056d2" stroke="none">
<path d="M838 1930 c-142 -23 -304 -85 -415 -161 -69 -47 -188 -164 -239 -235
-62 -86 -129 -234 -156 -340 -31 -126 -31 -322 0 -448 27 -106 94 -254 156
-340 51 -71 170 -188 239 -235 78 -53 227 -119 323 -143 126 -31 322 -31 448
0 96 24 245 90 323 143 69 47 188 164 239 235 62 86 129 234 156 340 31 126
31 322 0 448 -27 106 -94 254 -156 340 -51 71 -170 188 -239 235 -78 53 -226
119 -317 141 -97 23 -277 33 -362 20z m299 -365 c122 -23 231 -82 326 -177 43
-43 76 -82 72 -87 -3 -6 -61 -42 -130 -81 l-124 -71 -40 40 c-200 200 -544 61
-544 -219 0 -166 129 -299 300 -308 100 -6 159 16 233 85 33 30 63 53 68 51
25 -9 242 -143 242 -149 0 -16 -76 -103 -126 -144 -107 -86 -271 -145 -406
-145 -154 1 -322 72 -434 184 -126 126 -178 252 -178 426 0 166 50 291 164
414 147 156 359 222 577 181z"/>
</g>
</svg>
