<svg xmlns="http://www.w3.org/2000/svg" xmlns:xlink="http://www.w3.org/1999/xlink" width="500" zoomAndPan="magnify" viewBox="0 0 375 374.999991" height="500" preserveAspectRatio="xMidYMid meet" version="1.0"><rect x="-37.5" width="450" fill="#ffffff" y="-37.499999" height="449.999989" fill-opacity="1"/><path fill="#e30613" d="M 118.359375 305.859375 C 52.324219 305.859375 0 252.28125 0 187.5 C 0 121.464844 53.570312 69.140625 118.359375 69.140625 L 256.640625 69.140625 C 322.675781 69.140625 375 122.71875 375 187.5 C 375 253.535156 321.429688 305.859375 256.640625 305.859375 Z M 254.15625 263.496094 C 296.519531 263.496094 331.398438 228.617188 331.398438 186.253906 C 331.398438 143.890625 296.519531 109.007812 254.15625 109.007812 L 122.089844 109.007812 C 79.730469 109.007812 44.847656 143.890625 44.847656 186.253906 C 44.847656 228.617188 79.734375 263.496094 122.089844 263.496094 Z M 254.15625 263.496094 " fill-opacity="1" fill-rule="nonzero"/></svg>