<svg xmlns="http://www.w3.org/2000/svg" xmlns:xlink="http://www.w3.org/1999/xlink" width="32" zoomAndPan="magnify" viewBox="0 0 375 374.999991" height="32" preserveAspectRatio="xMidYMid meet" version="1.0"><defs><clipPath id="645758503b"><path d="M 63.984375 2.015625 L 310.734375 2.015625 L 310.734375 372.984375 L 63.984375 372.984375 Z M 63.984375 2.015625 " clip-rule="nonzero"/></clipPath></defs><g clip-path="url(#645758503b)"><path fill="#333333" d="M 176.457031 23.257812 C 126.390625 23.257812 85.203125 64.0625 85.203125 114.617188 L 85.203125 260.382812 C 85.203125 310.9375 126.390625 351.742188 176.457031 351.742188 L 198.53125 351.742188 C 249.058594 351.742188 289.785156 310.542969 289.785156 260.382812 L 289.785156 114.617188 C 289.785156 64.0625 248.632812 23.257812 198.53125 23.257812 Z M 198.53125 372.984375 L 176.457031 372.984375 C 114.480469 372.984375 63.984375 322.398438 63.984375 260.382812 L 63.984375 114.617188 C 63.984375 52.570312 114.480469 2.015625 176.457031 2.015625 L 198.53125 2.015625 C 260.507812 2.015625 311.003906 52.570312 311.003906 114.617188 L 311.003906 260.382812 C 311.003906 322.398438 260.507812 372.984375 198.53125 372.984375 " fill-opacity="1" fill-rule="nonzero"/></g><path fill="#333333" d="M 240.144531 198.761719 C 236.328125 194.515625 229.519531 194.515625 225.277344 198.761719 L 198.101562 228.503906 L 198.101562 120.578125 C 198.101562 114.617188 193.433594 109.941406 187.511719 109.941406 C 181.554688 109.941406 176.886719 114.617188 176.886719 120.578125 L 176.886719 228.929688 L 149.710938 199.191406 C 145.898438 194.941406 139.121094 194.941406 134.875 199.191406 C 131.453125 203.011719 131.453125 208.941406 134.875 212.792969 L 179.847656 262.523438 C 183.695312 266.773438 190.472656 266.773438 194.714844 262.523438 L 240.144531 212.792969 C 243.535156 208.542969 243.535156 202.582031 240.144531 198.761719 " fill-opacity="1" fill-rule="nonzero"/></svg>